<svg width="102" height="99" viewBox="0 0 102 99" fill="none" xmlns="http://www.w3.org/2000/svg">
<ellipse cx="79.353" cy="70.5751" rx="5.10418" ry="5.1215" fill="#EBC08E"/>
<ellipse cx="96.7071" cy="70.5751" rx="5.10418" ry="5.1215" fill="#EBC08E"/>
<ellipse cx="61.9988" cy="70.5751" rx="5.10418" ry="5.1215" fill="#EBC08E"/>
<ellipse cx="7.89449" cy="70.5751" rx="5.10418" ry="5.1215" fill="#EBC08E"/>
<ellipse cx="44.6446" cy="70.5751" rx="5.10418" ry="5.1215" fill="#EBC08E"/>
<ellipse cx="26.2695" cy="70.5751" rx="5.10418" ry="5.1215" fill="#EBC08E"/>
<ellipse cx="77.3113" cy="48.0404" rx="5.10418" ry="5.1215" fill="#EBC08E"/>
<ellipse cx="94.6655" cy="48.0404" rx="5.10418" ry="5.1215" fill="#EBC08E"/>
<ellipse cx="59.9571" cy="48.0404" rx="5.10418" ry="5.1215" fill="#EBC08E"/>
<ellipse cx="5.85283" cy="48.0404" rx="5.10418" ry="5.1215" fill="#EBC08E"/>
<ellipse cx="42.6029" cy="48.0404" rx="5.10418" ry="5.1215" fill="#EBC08E"/>
<ellipse cx="24.2279" cy="48.0404" rx="5.10418" ry="5.1215" fill="#EBC08E"/>
<ellipse cx="77.3113" cy="25.5059" rx="5.10418" ry="5.1215" fill="#EBC08E"/>
<ellipse cx="94.6655" cy="25.5059" rx="5.10418" ry="5.1215" fill="#EBC08E"/>
<ellipse cx="59.9571" cy="25.5059" rx="5.10418" ry="5.1215" fill="#EBC08E"/>
<ellipse cx="5.85283" cy="25.5059" rx="5.10418" ry="5.1215" fill="#EBC08E"/>
<ellipse cx="42.6029" cy="25.5059" rx="5.10418" ry="5.1215" fill="#EBC08E"/>
<ellipse cx="24.2279" cy="25.5059" rx="5.10418" ry="5.1215" fill="#EBC08E"/>
<ellipse cx="77.3113" cy="6.04423" rx="5.10418" ry="5.1215" fill="#EBC08E"/>
<ellipse cx="94.6655" cy="6.04423" rx="5.10418" ry="5.1215" fill="#EBC08E"/>
<ellipse cx="59.9571" cy="6.04423" rx="5.10418" ry="5.1215" fill="#EBC08E"/>
<ellipse cx="5.85283" cy="6.04423" rx="5.10418" ry="5.1215" fill="#EBC08E"/>
<ellipse cx="42.6029" cy="6.04423" rx="5.10418" ry="5.1215" fill="#EBC08E"/>
<ellipse cx="24.2279" cy="6.04423" rx="5.10418" ry="5.1215" fill="#EBC08E"/>
<ellipse cx="79.353" cy="93.1097" rx="5.10418" ry="5.1215" fill="#EBC08E"/>
<ellipse cx="96.7071" cy="93.1097" rx="5.10418" ry="5.1215" fill="#EBC08E"/>
<ellipse cx="61.9988" cy="93.1097" rx="5.10418" ry="5.1215" fill="#EBC08E"/>
<ellipse cx="7.89449" cy="93.1097" rx="5.10418" ry="5.1215" fill="#EBC08E"/>
<ellipse cx="44.6446" cy="93.1097" rx="5.10418" ry="5.1215" fill="#EBC08E"/>
<ellipse cx="26.2695" cy="93.1097" rx="5.10418" ry="5.1215" fill="#EBC08E"/>
</svg>
