<svg xmlns:xlink="http://www.w3.org/1999/xlink" xmlns="http://www.w3.org/2000/svg" width="63.879" height="48.638" viewBox="0 0 63.879 48.638">
                                <path d="M64,24.45a5,5,0,0,1-2.68,2.43c-2.53,1.21-5,2.47-7.55,3.69a.79.79,0,0,0-.52.85v14.1a2.2,2.2,0,0,1-.56,1.53A25.82,25.82,0,0,1,38,55.74a28,28,0,0,1-18.38-2.22,25,25,0,0,1-8.41-6.62,2.11,2.11,0,0,1-.43-1.24V31.38a.81.81,0,0,0-.55-.89c-1.09-.5-2.16-1-3.3-1.6V38.8a.64.64,0,0,0,.36.69,3.34,3.34,0,0,1,1.89,3.19,3.4,3.4,0,0,1-1.93,3.11A1.24,1.24,0,0,0,7,46l3.26,10.38H1L4.26,46c-.32-.23-.62-.4-.89-.63a3.52,3.52,0,0,1,.56-5.79.75.75,0,0,0,.45-.77V28.2a.75.75,0,0,0-.5-.79A15.79,15.79,0,0,1,1.33,26a2.57,2.57,0,0,1,0-4.36,7.85,7.85,0,0,1,1.28-.76q12.63-6,25.27-12.06a10,10,0,0,1,9.07.05Q49,14.74,61.16,20.65A4.76,4.76,0,0,1,64,23.33Zm-61.7-.6c.46.31.74.54,1.06.71a19.619,19.619,0,0,0,1.92.89,2.86,2.86,0,0,0,1.25.23c1.17-.09,2.35-.26,3.52-.4l9-1.07,9-1.06c1.29-.15,2.59-.32,3.89-.43a1.09,1.09,0,0,1,1.18,1,1.11,1.11,0,0,1-.87,1.26,7,7,0,0,1-.8.13l-7,.82-9,1.05-5.69.67.68.36,18.4,8.82a7.66,7.66,0,0,0,6.9,0q8.45-4.1,16.87-8.22,3.95-1.92,7.87-3.87c.41-.21.78-.5,1.34-.87-.58-.35-1-.62-1.37-.82l-24.66-12a7.75,7.75,0,0,0-7,0C27.45,11.6,26,12.29,24.61,13l-21,10.1a9.391,9.391,0,0,0-1.31.75Zm48.6,8-.79.38-13.3,6.51a9.91,9.91,0,0,1-8.94,0c-4.68-2.2-9.32-4.45-14-6.68l-.72-.32V44.41a2.65,2.65,0,0,0,.9,2.11c6.9,6.77,15.13,8.79,24.42,6.65A22.8,22.8,0,0,0,50.54,46a1.53,1.53,0,0,0,.35-.93q0-6.24,0-12.47Z" transform="translate(-0.121 -7.757)" fill="#FFFFFF"></path>
                            </svg>