<svg xmlns:xlink="http://www.w3.org/1999/xlink" xmlns="http://www.w3.org/2000/svg" width="64.032" height="57.241" viewBox="0 0 64.032 57.241">
                                <path data-name="Path 88" d="M10.12,6.64V18.17a1.69,1.69,0,1,1-3.36,0c0-3.51,0-7,0-10.52V6.64H5.12a1.62,1.62,0,0,1-1.7-1.71,1.62,1.62,0,0,1,1.73-1.6H62.38A1.65,1.65,0,0,1,64,5a1.62,1.62,0,0,1-1.52,1.64H60.67V40.35H62a1.762,1.762,0,0,1,2,1.72c0,1.02-.77,1.65-2,1.65H42.38A1.76,1.76,0,0,1,40.45,42a1.73,1.73,0,0,1,1.94-1.67H57.3V7.66c0-.85-.24-1-1.06-1H11.1Z" fill="#FFFFFF"></path>
                                <path data-name="Path 89" d="M23.24,52.54c1.09-1.31,2.11-2.52,3.13-3.73Q35.13,38.34,43.9,27.89a2.69,2.69,0,0,1,1.1-.84,1.49,1.49,0,0,1,1.82.57,1.53,1.53,0,0,1,0,1.92c-.42.57-.89,1.11-1.35,1.65Q34.79,44,24.11,56.74a3.51,3.51,0,0,0-.5,1.31,2.9,2.9,0,0,0,0,.66,1.69,1.69,0,1,1-3.37,0V55.42a8.42,8.42,0,0,0-16.83-.21c0,1.2,0,2.41,0,3.62A1.65,1.65,0,0,1,1.8,60.56,1.58,1.58,0,0,1,.07,59a20.79,20.79,0,0,1,.48-6.94A11.79,11.79,0,0,1,23,51.74Z" fill="#FFFFFF"></path>
                                <path data-name="Path 90" d="M3.21,32.13a8.62,8.62,0,1,1,4.221,7.709A8.62,8.62,0,0,1,3.21,32.13Zm8.63,5.27a5.28,5.28,0,1,0-4.906-3.229A5.24,5.24,0,0,0,11.84,37.4Z" fill="#FFFFFF"></path>
                                <path data-name="Path 91" d="M35.35,23.51H22.2c-1.45,0-2.31-1.1-1.82-2.29a1.69,1.69,0,0,1,1.69-1.07H48.54c1.22,0,2,.69,2,1.7s-.8,1.66-2,1.67Z" fill="#FFFFFF"></path>
                                <path data-name="Path 92" d="M38.71,16.77H29.17a3.26,3.26,0,0,1-1.12-.15A1.51,1.51,0,0,1,27,15a1.52,1.52,0,0,1,1.18-1.5,4.38,4.38,0,0,1,1.14-.12H48.38c1.36,0,2.18.67,2.16,1.72s-.82,1.66-2.13,1.66Z" fill="#FFFFFF"></path>
                            </svg>