<svg xmlns:xlink="http://www.w3.org/1999/xlink" xmlns="http://www.w3.org/2000/svg" width="63.902" height="59.661" viewBox="0 0 63.902 59.661">
                                <path data-name="Path 85" d="M0,11.28c.08-.23.17-.45.24-.69a5.69,5.69,0,0,1,5.4-4H36.39a1.26,1.26,0,0,1,1.41,1A1.21,1.21,0,0,1,37,9a3.19,3.19,0,0,1-.93.07H6.25Q2.49,9,2.49,12.79V44.42c0,2.38,1.29,3.68,3.65,3.68H57.73a3.29,3.29,0,0,0,3.66-3.66V25.72a1.25,1.25,0,0,1,1.72-1.31,1.23,1.23,0,0,1,.78,1.23V44.67A5.67,5.67,0,0,1,58,50.59H37a3.27,3.27,0,0,0,.23.46q2.55,4,5.09,8a.82.82,0,0,0,.8.42h3.93c.92,0,1.48.47,1.49,1.23s-.56,1.26-1.45,1.26H16.83c-.9,0-1.46-.48-1.46-1.24s.56-1.24,1.47-1.25h4a.93.93,0,0,0,.65-.3c1.79-2.75,3.55-5.52,5.32-8.28,0,0,.05-.12.12-.27h-.69c-6.72,0-13.43-.05-20.15,0A5.83,5.83,0,0,1,.11,46c0-.05-.07-.09-.11-.14ZM39.59,59.43c-1.87-2.93-3.68-5.76-5.51-8.58a.79.79,0,0,0-.56-.25H30.47a.8.8,0,0,0-.8.44c-1.67,2.63-3.37,5.26-5.06,7.9-.09.15-.17.31-.26.49Z" fill="#FFFFFF"></path>
                                <path data-name="Path 86" d="M36.15,28.07a9.26,9.26,0,0,1,5.14,6.58,34.479,34.479,0,0,1,.27,5.76c0,.69-.53,1.07-1.28,1.08H23.63c-1.23,0-1.68-.41-1.64-1.63a35.52,35.52,0,0,1,.31-5.27c.52-2.8,2.25-4.83,5.16-6.53a7,7,0,0,1-2.57-6.28,6.69,6.69,0,0,1,2.55-4.62,6.98,6.98,0,0,1,8.71,10.91ZM39.08,39V37a7.19,7.19,0,0,0-7.51-7.41c-4.35.1-7.87,3.87-6.95,9.34ZM36.22,22.6a4.39,4.39,0,1,0-1.282,3.121A4.43,4.43,0,0,0,36.22,22.6Z" fill="#FFFFFF"></path>
                                <path data-name="Path 87" d="M45.31,22.22a10.909,10.909,0,0,1-1.54-.07,3.85,3.85,0,0,1-3.59-3.73q-.09-6.17,0-12.35A3.86,3.86,0,0,1,44.12,2.3H59.9a4,4,0,0,1,4,4V18.15a3.87,3.87,0,0,1-3.73,4c-2.51.1-5,.05-7.55,0a1.44,1.44,0,0,0-1.14.46C50.31,23.82,49.1,25,47.91,26.2c-.49.5-1,1-1.77.67s-.82-1-.81-1.78C45.32,24.17,45.31,23.21,45.31,22.22Zm2.54.5c.89-.9,1.66-1.65,2.41-2.43a1.94,1.94,0,0,1,1.54-.64h7.67c1.4,0,1.92-.52,1.92-1.91v-11c0-1.37-.55-1.92-1.93-1.92H44.37a1.51,1.51,0,0,0-1.7,1.56q0,5.9,0,11.79a1.44,1.44,0,0,0,1.53,1.51h2.06c1.13,0,1.57.45,1.59,1.59Z" fill="#FFFFFF"></path>
                            </svg>