<svg xmlns:xlink="http://www.w3.org/1999/xlink" xmlns="http://www.w3.org/2000/svg" width="63.913" height="63.86" viewBox="0 0 63.913 63.86">
                                <path data-name="Path 83" d="M0,29.82c.16-1.13.3-2.26.5-3.38A31.4,31.4,0,0,1,10.77,8.17,30.44,30.44,0,0,1,27.53.43C38.77-.95,48.29,2.6,55.91,11a30,30,0,0,1,7.66,16.66,31.2,31.2,0,0,1-8.22,26.08A31.09,31.09,0,0,1,38,63.43c-1.08.22-2.18.3-3.27.45a5.229,5.229,0,0,0-.54.12h-4.5l-2.14-.28A31.63,31.63,0,0,1,10.8,56,31.44,31.44,0,0,1,.5,37.68C.3,36.57.16,35.43,0,34.31ZM31.93,2.91A29.16,29.16,0,1,0,61.09,32,29.16,29.16,0,0,0,31.93,2.91Z" fill="#FFFFFF"></path>
                                <path data-name="Path 84" d="M30.55,21V10c0-1,.56-1.6,1.44-1.57a1.33,1.33,0,0,1,1.32,1.24q0,.375,0,.75V30.75a1.48,1.48,0,0,0,.47,1.15Q39.35,37.48,44.9,43l.26.27c.77.78.87,1.63.26,2.24s-1.46.51-2.24-.27l-12-12a2,2,0,0,1-.64-1.55C30.56,28.15,30.55,24.55,30.55,21Z" fill="#FFFFFF"></path>
                            </svg>